<svg xmlns="http://www.w3.org/2000/svg" xmlns:xlink="http://www.w3.org/1999/xlink" width="149.861" height="59.705" viewBox="0 0 149.861 59.705">
  <defs>
    <linearGradient id="linear-gradient" x1="0.5" x2="0.5" y2="1" gradientUnits="objectBoundingBox">
      <stop offset="0" stop-color="#1d71b8"/>
      <stop offset="1" stop-color="#29235c"/>
    </linearGradient>
    <linearGradient id="linear-gradient-2" x1="0.5" y1="0" x2="0.5" y2="1" xlink:href="#linear-gradient"/>
    <linearGradient id="linear-gradient-3" x1="0.5" y1="0" x2="0.5" y2="1" xlink:href="#linear-gradient"/>
  </defs>
  <g id="logo_leads" data-name="logo leads" transform="translate(-48.79 -49.94)">
    <path id="Tracé_8" data-name="Tracé 8" d="M113.951,93.479q0,1.7-.195,5.628h-.717c-.261,0-.895-.044-1.894-.132s-2.133-.132-3.4-.132l-27.169-.2q-1.111,0-1.111-.59c0-.3.59-.5,1.767-.59a6.434,6.434,0,0,0,2.978-.556q.49-.424.49-2.454V57.684q0-2.42-.49-2.813t-3.5-.392q-1.243,0-1.243-.719c0-.392.261-.59.785-.59h.59q2.161.2,8.572.2.589,0,2.291-.1t2.813-.1h.719q1.177,0,1.177.656a.458.458,0,0,1-.361.49,15.423,15.423,0,0,1-2.257.163q-1.9.066-2.257.622a8.919,8.919,0,0,0-.361,3.434V97.145q1.766.066,4.909.066a50.659,50.659,0,0,0,10.8-.785,6.1,6.1,0,0,0,4.253-2.944,14.575,14.575,0,0,0,1.309-5.823c.041-.565.292-.851.753-.851.546,0,.795.327.753.982v5.689Z" transform="translate(-23.202 -2.443)" fill="url(#linear-gradient)"/>
    <path id="Tracé_9" data-name="Tracé 9" d="M256.358,141.662a5.791,5.791,0,0,1-1.014,2.323,14.538,14.538,0,0,1-2.062,2.715,10.038,10.038,0,0,1-7.524,2.879,12.91,12.91,0,0,1-9.849-4.253,14.871,14.871,0,0,1-3.958-10.534,16.18,16.18,0,0,1,3.763-10.927,11.871,11.871,0,0,1,9.389-4.385,11.494,11.494,0,0,1,7.787,2.715,9.41,9.41,0,0,1,3.337,6.968,33.361,33.361,0,0,1-5.562.261h-4.58q-.457,0-7.853.195a27.216,27.216,0,0,0-.327,4.107q0,6.584,2.52,10.137a8.2,8.2,0,0,0,7.1,3.554,6.812,6.812,0,0,0,4.187-1.177,14.406,14.406,0,0,0,3.4-4.516.8.8,0,0,1,.719-.524C256.182,141.2,256.358,141.358,256.358,141.662Zm-5.694-13.349q-.263-7.853-5.628-7.853-5.3,0-6.61,7.853Z" transform="translate(-138.517 -52.591)" fill="#3c3c3b"/>
    <path id="Tracé_10" data-name="Tracé 10" d="M374.862,145.875q0,1.111-2.311,2.323a9.6,9.6,0,0,1-4.458,1.211q-4.493,0-4.687-4.646a8.114,8.114,0,0,1-7.68,4.843,6.589,6.589,0,0,1-4.624-1.667,5.55,5.55,0,0,1-1.823-4.287q0-5.363,6.42-8.506a35.451,35.451,0,0,1,7.648-2.094v-1.635a30.545,30.545,0,0,0-.59-7.59,4.462,4.462,0,0,0-4.711-3.337,5.884,5.884,0,0,0-3.827,1.243,3.871,3.871,0,0,0-1.538,3.142c0,.351.266.524.8.524a1.845,1.845,0,0,1,1.44.785,2.725,2.725,0,0,1,.641,1.767q0,2.881-2.849,2.879a3.257,3.257,0,0,1-2.462-1.014,3.579,3.579,0,0,1-.97-2.584,6.966,6.966,0,0,1,2.42-5.3q2.684-2.42,7.461-2.42,7.2,0,8.833,3.927a19.385,19.385,0,0,1,.59,5.954v12.236q0,3.009.066,3.534.325,2.354,1.9,2.357a3.869,3.869,0,0,0,3.01-1.309q.654-.72.982-.719C374.753,145.48,374.862,145.612,374.862,145.875Zm-11.517-6.937v-4.777q-4.837,1.111-6.934,2.913a6.021,6.021,0,0,0-2.1,4.809,4.971,4.971,0,0,0,1.192,3.434,3.844,3.844,0,0,0,3,1.341q2.771,0,4.451-3.142Q363.346,142.8,363.346,138.938Z" transform="translate(-227.25 -52.613)" fill="#3c3c3b"/>
    <path id="Tracé_11" data-name="Tracé 11" d="M483.226,94.9c0,.3-.3.458-.916.458h-1.962a10.853,10.853,0,0,0-5.43,1.263,4.089,4.089,0,0,1-1.111.5c-.392,0-.59-.261-.59-.785l.066-2.028a9.117,9.117,0,0,1-6.673,2.815,11.33,11.33,0,0,1-9.062-4.239,16.209,16.209,0,0,1-3.566-10.812q0-6.767,3.566-10.975a11.64,11.64,0,0,1,9.325-4.207,7.583,7.583,0,0,1,6.673,3.208V59.889q0-4.972-.451-6.152-.387-.98-1.16-.916-1.872.2-2.259.2c-.561,0-.839-.2-.839-.59s.239-.59.714-.59l2.342.066q1.949.066,5.981-1.833a1.034,1.034,0,0,1,.456-.132q.651,0,.651,1.57V77.292q0,15.509.261,16.62.132.457,3.076.458C482.921,94.373,483.226,94.548,483.226,94.9Zm-9.684-16.425q0-6.281-1.375-8.048a5.521,5.521,0,0,0-4.514-2.225q-3.535,0-5.628,3.663t-2.094,9.815a25.006,25.006,0,0,0,1.833,10.076,7.23,7.23,0,0,0,2.323,2.913,5.257,5.257,0,0,0,3.173,1.146,5.991,5.991,0,0,0,3.663-1.211,5.493,5.493,0,0,0,2.125-2.913Q473.543,89.991,473.542,78.472Z" transform="translate(-306.431 0)" fill="#3c3c3b"/>
    <path id="Tracé_12" data-name="Tracé 12" d="M605.37,137.418a8.627,8.627,0,0,1-2.761,6.459,9.176,9.176,0,0,1-6.6,2.657,12.762,12.762,0,0,1-5.394-1.57,3.244,3.244,0,0,0-1.494-.458q-.91,0-1.365,1.243-.26.786-.714.785c-.3,0-.456-.175-.456-.524v-8.767c0-.48.154-.719.458-.719.348,0,.546.244.59.724a9.78,9.78,0,0,0,1.7,4.746,8.359,8.359,0,0,0,7,3.427,5.26,5.26,0,0,0,3.795-1.377,4.846,4.846,0,0,0,1.44-3.673,5.26,5.26,0,0,0-1.635-4.065,7.076,7.076,0,0,0-1.67-1.214q-.753-.362-4.417-1.738-7.265-2.753-7.263-8.263a8.417,8.417,0,0,1,2.467-6.164,8.244,8.244,0,0,1,6.1-2.493,14.924,14.924,0,0,1,3.895.785,4.048,4.048,0,0,0,1.167.2,1.575,1.575,0,0,0,1.689-1.309c.129-.436.327-.656.585-.656.3,0,.453.175.453.524v3.142a36.884,36.884,0,0,0,.327,5.038v.132a.464.464,0,0,1-.524.524c-.261,0-.59-.658-.982-1.979a7.628,7.628,0,0,0-2.52-3.829,6.436,6.436,0,0,0-4.156-1.453,5.075,5.075,0,0,0-3.663,1.377,4.606,4.606,0,0,0-1.44,3.476q0,3.279,4.385,4.984,6.8,2.691,8.638,4.46A7.484,7.484,0,0,1,605.37,137.418Z" transform="translate(-406.719 -49.543)" fill="#3c3c3b"/>
    <g id="Groupe_3" data-name="Groupe 3" transform="translate(69.642 65.941)">
      <path id="Tracé_13" data-name="Tracé 13" d="M135.161,116.455a5.48,5.48,0,0,1,2.323.258c.217.173.327.8.327,1.869v23.226h4.3V119.146a5.964,5.964,0,0,1,.239-2.279c.158-.244.658-.383,1.5-.409a10.852,10.852,0,0,0,1.5-.11.3.3,0,0,0,.239-.324c0-.29-.261-.434-.782-.434h-.478q-.739,0-1.867.063c-.753.046-1.258.068-1.518.068q-4.256,0-5.689-.132h-.392c-.346,0-.519.132-.519.388C134.337,116.3,134.613,116.455,135.161,116.455Z" transform="translate(-134.34 -115.59)" fill="url(#linear-gradient-2)"/>
    </g>
    <g id="Groupe_4" data-name="Groupe 4" transform="translate(48.79 55.514)">
      <path id="Tracé_14" data-name="Tracé 14" d="M49.611,73.678a5.48,5.48,0,0,1,2.323.258c.217.173.327.8.327,1.869V99.031h4.3V76.366a5.963,5.963,0,0,1,.239-2.279c.158-.244.658-.383,1.5-.409a10.854,10.854,0,0,0,1.5-.11.3.3,0,0,0,.239-.324c0-.29-.261-.434-.782-.434h-.478q-.739,0-1.867.063c-.753.046-1.258.068-1.518.068q-4.256,0-5.689-.132h-.392c-.346,0-.519.132-.519.388C48.79,73.517,49.063,73.678,49.611,73.678Z" transform="translate(-48.79 -72.81)" fill="url(#linear-gradient-3)"/>
    </g>
    <g id="Groupe_5" data-name="Groupe 5" transform="translate(121.757 100.769)">
      <path id="Tracé_15" data-name="Tracé 15" d="M354.98,267.969a7.485,7.485,0,0,1-2.559.456,3.9,3.9,0,0,1-4.26-4.182,4.154,4.154,0,0,1,4.492-4.282,5.172,5.172,0,0,1,2.079.383l-.271.875a4.117,4.117,0,0,0-1.833-.356,3.1,3.1,0,0,0-3.334,3.334,3.035,3.035,0,0,0,3.2,3.349,3.472,3.472,0,0,0,1.428-.222v-2.474h-1.674v-.863h2.732Z" transform="translate(-348.16 -259.599)" fill="#3c3c3b"/>
      <path id="Tracé_16" data-name="Tracé 16" d="M419.01,258.48h1.082v8.738H419.01Z" transform="translate(-401.741 -258.48)" fill="#3c3c3b"/>
      <path id="Tracé_17" data-name="Tracé 17" d="M471.333,272.442a2.918,2.918,0,0,1-2.966,3.164,2.84,2.84,0,0,1-2.857-3.064,2.912,2.912,0,0,1,2.954-3.151A2.818,2.818,0,0,1,471.333,272.442Zm-4.714.061c0,1.3.738,2.289,1.8,2.289,1.033,0,1.809-.973,1.809-2.313,0-1.009-.5-2.276-1.784-2.276S466.619,271.384,466.619,272.5Z" transform="translate(-436.908 -266.731)" fill="#3c3c3b"/>
      <path id="Tracé_18" data-name="Tracé 18" d="M531.2,258.48h1.07v3.741h.024a2.208,2.208,0,0,1,2.03-1.082c1.489,0,2.523,1.231,2.523,3.027,0,2.13-1.355,3.188-2.684,3.188a2.163,2.163,0,0,1-2.006-1.107h-.024l-.061.972h-.924c.024-.407.049-1.009.049-1.538v-7.2Zm1.07,6.352a1.4,1.4,0,0,0,.049.395,1.661,1.661,0,0,0,1.626,1.267c1.146,0,1.808-.924,1.808-2.289,0-1.194-.614-2.216-1.784-2.216a1.739,1.739,0,0,0-1.638,1.328,1.719,1.719,0,0,0-.061.456Z" transform="translate(-486.549 -258.48)" fill="#3c3c3b"/>
      <path id="Tracé_19" data-name="Tracé 19" d="M599.18,274.051a10.105,10.105,0,0,0,.085,1.428h-.973l-.085-.751h-.037a2.217,2.217,0,0,1-1.821.887,1.7,1.7,0,0,1-1.821-1.711c0-1.44,1.28-2.228,3.583-2.216v-.122a1.221,1.221,0,0,0-1.355-1.367,2.869,2.869,0,0,0-1.562.444l-.246-.726a3.864,3.864,0,0,1,1.969-.517c1.821,0,2.264,1.243,2.264,2.425v2.225Zm-1.046-1.614c-1.182-.024-2.523.185-2.523,1.341a.948.948,0,0,0,1.009,1.033,1.505,1.505,0,0,0,1.465-1,1.241,1.241,0,0,0,.049-.344Z" transform="translate(-534.481 -266.738)" fill="#3c3c3b"/>
      <path id="Tracé_20" data-name="Tracé 20" d="M657.14,258.48h1.082v8.738H657.14Z" transform="translate(-581.831 -258.48)" fill="#3c3c3b"/>
    </g>
  </g>
</svg>
